<svg width="400" height="400" viewBox="0 0 400 400" fill="none" xmlns="http://www.w3.org/2000/svg">
  <rect width="400" height="400" fill="#E2E8F0"/>
  <path d="M200 130C161.34 130 130 161.34 130 200C130 238.66 161.34 270 200 270C238.66 270 270 238.66 270 200C270 161.34 238.66 130 200 130ZM200 250C172.387 250 150 227.613 150 200C150 172.387 172.387 150 200 150C227.613 150 250 172.387 250 200C250 227.613 227.613 250 200 250Z" fill="#94A3B8"/>
  <path d="M175 185L160 215H240L215 175L195 205L175 185Z" fill="#94A3B8"/>
  <text x="200" y="320" font-family="Arial, sans-serif" font-size="24" fill="#64748B" text-anchor="middle" font-weight="bold">Immagine non disponibile</text>
</svg>
